# xmcd CD database file
#
# Track frame offsets:
#	150
#	14577
#	32960
#	50527
#	77620
#	96902
#	113850
#	131662
#	149537
#	167270
#	182492
#	200255
#	222677
#	239245
#	258180
#	275470
#	290482
#	306867
#
# Disc length: 4391 seconds
#
# Revision: 1
# Processed by: cddbd v1.5.2PL0 Copyright (c) Steve Scherf et al.
# Submitted via: CDex 1.70beta2
#
DISCID=11112512
DTITLE=風 - ALL THE BEST
DYEAR=1996
DGENRE=Folk
TTITLE0=22歳の別れ
TTITLE1=海岸通
TTITLE2=海風
TTITLE3=ほおづえをつく女
TTITLE4=でい どりーむ
TTITLE5=トパーズ色の街
TTITLE6=あいつ
TTITLE7=ささやかなこの人生
TTITLE8=あの唄はもう唄わないのですか
TTITLE9=北国列車
TTITLE10=ロンリネス
TTITLE11=君と歩いた青春
TTITLE12=アフタヌーン通り25
TTITLE13=おそかれ はやかれ
TTITLE14=暦の上では
TTITLE15=お前だけが
TTITLE16=冬京
TTITLE17=Bye Bye
EXTD=
EXTT0=
EXTT1=
EXTT2=
EXTT3=
EXTT4=
EXTT5=
EXTT6=
EXTT7=
EXTT8=
EXTT9=
EXTT10=
EXTT11=
EXTT12=
EXTT13=
EXTT14=
EXTT15=
EXTT16=
EXTT17=
PLAYORDER=
